<svg width="41" height="38" viewBox="0 0 41 38" fill="none" xmlns="http://www.w3.org/2000/svg">
    <rect x="0.181641" y="0.463501" width="40.8182" height="37" rx="18.5" fill="black" fill-opacity="0.5"/>
    <circle opacity="0.14" cx="20.5908" cy="18.9635" r="9" fill="white"/>
    <path d="M11.5908 18.9635H29.5908M11.5908 18.9635C11.5908 23.9341 15.6203 27.9635 20.5908 27.9635M11.5908 18.9635C11.5908 13.9929 15.6203 9.9635 20.5908 9.9635M29.5908 18.9635C29.5908 23.9341 25.5614 27.9635 20.5908 27.9635M29.5908 18.9635C29.5908 13.9929 25.5614 9.9635 20.5908 9.9635M20.5908 27.9635C13.3464 20.0435 17.5723 12.6635 20.5908 9.9635M20.5908 27.9635C27.8352 20.0435 23.6093 12.6635 20.5908 9.9635"
          stroke="white" stroke-width="2" stroke-linecap="round" stroke-linejoin="round"/>
</svg>
